<mxfile host="app.diagrams.net" modified="2020-06-15T09:12:53.371Z" agent="5.0 (Windows NT 10.0; Win64; x64) AppleWebKit/537.36 (KHTML, like Gecko) Chrome/83.0.4103.61 Safari/537.36" etag="cOjBDkoxnc40haGwoI5m" version="13.2.4" type="github">
  <diagram id="XmJLhTV0umR_bgyQQquU" name="第 1 页">
    <mxGraphModel dx="1422" dy="772" grid="1" gridSize="10" guides="1" tooltips="1" connect="1" arrows="1" fold="1" page="1" pageScale="1" pageWidth="1169" pageHeight="1654" math="0" shadow="0">
      <root>
        <mxCell id="0" />
        <mxCell id="1" parent="0" />
        <mxCell id="F3pIrGjk3AH5MIoYIEzh-8" style="edgeStyle=orthogonalEdgeStyle;rounded=0;orthogonalLoop=1;jettySize=auto;html=1;entryX=0;entryY=0.5;entryDx=0;entryDy=0;" parent="1" source="F3pIrGjk3AH5MIoYIEzh-1" target="F3pIrGjk3AH5MIoYIEzh-3" edge="1">
          <mxGeometry relative="1" as="geometry" />
        </mxCell>
        <mxCell id="F3pIrGjk3AH5MIoYIEzh-14" value="业务系统同步数据" style="edgeLabel;html=1;align=center;verticalAlign=middle;resizable=0;points=[];" parent="F3pIrGjk3AH5MIoYIEzh-8" vertex="1" connectable="0">
          <mxGeometry x="-0.223" y="-1" relative="1" as="geometry">
            <mxPoint x="16" y="-1" as="offset" />
          </mxGeometry>
        </mxCell>
        <mxCell id="F3pIrGjk3AH5MIoYIEzh-1" value="数据中心同步数据进行判断，如果某条数据发生修改，那么数据中心会将对于数据的状态变为无效，然后将提供方修改后的数据作为有效数据新增进数据中心。如果数据为删除，那么数据中心将该数据对于在数据中心的数据变为无效" style="rounded=1;whiteSpace=wrap;html=1;" parent="1" vertex="1">
          <mxGeometry x="20" y="310" width="260" height="150" as="geometry" />
        </mxCell>
        <mxCell id="F3pIrGjk3AH5MIoYIEzh-3" value="&lt;div style=&quot;text-align: left&quot;&gt;&lt;span&gt;业务系统同步数据中心数据&lt;/span&gt;&lt;/div&gt;&lt;div style=&quot;text-align: left&quot;&gt;&lt;font color=&quot;#b5739d&quot;&gt;&lt;span&gt;1. 第一次可以加条件C_INSERTTIMEDCI大于1970-01-01，&lt;/span&gt;&lt;span&gt;按照有效数据进行同步(C_FLAG=&#39;S&#39;为有效数据)，&lt;/span&gt;&lt;span&gt;同步有效数据后与数据中心数据进行数据校验&lt;/span&gt;&lt;/font&gt;&lt;/div&gt;&lt;div style=&quot;text-align: left&quot;&gt;&lt;span&gt;&lt;font color=&quot;#0066cc&quot;&gt;2.如果业务系统不区分删除和修改操作，(除国开总成绩表和学生选课结果表)那么可以从数据中心先同步C_UPDATETIME大于上次同步C_INSERTTIMEDCI最大时间，并且C_FLAG=&#39;I&#39;的数据进行删除。然后再从数据中心同步C_INSERTTIMEDCI大于上次同步C_INSERTTIME最大时间，并且C_FLAG=&#39;S&#39;的数据进行新增。&lt;/font&gt;&lt;/span&gt;&lt;/div&gt;&lt;div style=&quot;text-align: left&quot;&gt;&lt;font color=&quot;#990099&quot;&gt;&lt;span&gt;3.如果业务系统区分删除和修改操作，之后的同步(除国开总成绩表和国开学生选课结果表)可以先同步&lt;/span&gt;&lt;span&gt;C_UPDATETIME&lt;/span&gt;&lt;span&gt;大于上次同步C_INSERTTIMEDCI最大时间&lt;/span&gt;&lt;span&gt;并且C_FLAG=&#39;I&#39;的数据，用这些数据的唯一值到数据中心查询C_FLAG=&#39;S&#39;的数据是否有该条数据，如果有，那么说明这条数据是修改数据，如果没有那么说明这条数据是删除数据，将删除的数据同步到业务系统进行删除。然后同步C_FLAG=‘S’且C_INSERTTIMEDCI大于上次同步的C_INSERTTIMEDCI最大时间，将这些有效数据插入到业务系统中，插入时进行查询，如果存在那么修改，如果不存在那么新增&lt;/span&gt;&lt;/font&gt;&lt;/div&gt;" style="rounded=1;whiteSpace=wrap;html=1;" parent="1" vertex="1">
          <mxGeometry x="419" y="220" width="750" height="330" as="geometry" />
        </mxCell>
        <mxCell id="F3pIrGjk3AH5MIoYIEzh-10" style="edgeStyle=orthogonalEdgeStyle;rounded=0;orthogonalLoop=1;jettySize=auto;html=1;entryX=0.5;entryY=0;entryDx=0;entryDy=0;" parent="1" source="F3pIrGjk3AH5MIoYIEzh-9" target="F3pIrGjk3AH5MIoYIEzh-1" edge="1">
          <mxGeometry relative="1" as="geometry" />
        </mxCell>
        <mxCell id="F3pIrGjk3AH5MIoYIEzh-11" value="数据中心同步数据" style="edgeLabel;html=1;align=center;verticalAlign=middle;resizable=0;points=[];" parent="F3pIrGjk3AH5MIoYIEzh-10" vertex="1" connectable="0">
          <mxGeometry x="-0.2" y="-1" relative="1" as="geometry">
            <mxPoint as="offset" />
          </mxGeometry>
        </mxCell>
        <mxCell id="F3pIrGjk3AH5MIoYIEzh-9" value="提供方修改删除数据" style="shape=cylinder;whiteSpace=wrap;html=1;boundedLbl=1;backgroundOutline=1;" parent="1" vertex="1">
          <mxGeometry x="40" y="40" width="220" height="150" as="geometry" />
        </mxCell>
        <mxCell id="F3pIrGjk3AH5MIoYIEzh-17" style="edgeStyle=orthogonalEdgeStyle;rounded=0;orthogonalLoop=1;jettySize=auto;html=1;entryX=0.5;entryY=0;entryDx=0;entryDy=0;" parent="1" source="F3pIrGjk3AH5MIoYIEzh-15" target="F3pIrGjk3AH5MIoYIEzh-16" edge="1">
          <mxGeometry relative="1" as="geometry" />
        </mxCell>
        <mxCell id="F3pIrGjk3AH5MIoYIEzh-15" value="提供方确认数据" style="shape=cylinder;whiteSpace=wrap;html=1;boundedLbl=1;backgroundOutline=1;" parent="1" vertex="1">
          <mxGeometry x="140" y="650" width="60" height="80" as="geometry" />
        </mxCell>
        <mxCell id="F3pIrGjk3AH5MIoYIEzh-19" style="edgeStyle=orthogonalEdgeStyle;rounded=0;orthogonalLoop=1;jettySize=auto;html=1;entryX=0;entryY=0.5;entryDx=0;entryDy=0;" parent="1" source="F3pIrGjk3AH5MIoYIEzh-16" target="F3pIrGjk3AH5MIoYIEzh-18" edge="1">
          <mxGeometry relative="1" as="geometry" />
        </mxCell>
        <mxCell id="F3pIrGjk3AH5MIoYIEzh-16" value="数据中心直接同步数据提供方数据进行校验，同步后再次进行同步，看数据是否会全部进入空操作(空操作，数据无变化，不进行操作)" style="rounded=1;whiteSpace=wrap;html=1;" parent="1" vertex="1">
          <mxGeometry x="40" y="827" width="260" height="150" as="geometry" />
        </mxCell>
        <mxCell id="F3pIrGjk3AH5MIoYIEzh-18" value="业务系统同步数据中心数据进行校验，同步后再次进行同步，看数据是否会出现重复(只同步C_FLAG=’S’且C_INSERTTIMEDCI大于上次同步后C_INSERTTIMEDCI最大值的数据，如果第一次同步，那么最大时间大于1970-01-01)，插入数据时需自行判断数据是否存在业务库中，如果存在那么更新，不存在就插入。" style="rounded=1;whiteSpace=wrap;html=1;" parent="1" vertex="1">
          <mxGeometry x="520" y="831" width="460" height="142" as="geometry" />
        </mxCell>
        <mxCell id="F3pIrGjk3AH5MIoYIEzh-20" value="&lt;h1&gt;规则&lt;/h1&gt;&lt;p&gt;C_FLAG:数据插入时默认为S有效，数据无效后变为I&lt;/p&gt;&lt;p&gt;C_INSERTTIMEDCI:数据插入时默认当前时间&lt;/p&gt;&lt;p&gt;C_UPDATETIME:数据变更无效时的当前时间，也就是C_FLAG变为I时的时间&lt;/p&gt;" style="text;html=1;strokeColor=none;fillColor=none;spacing=5;spacingTop=-20;whiteSpace=wrap;overflow=hidden;rounded=0;" parent="1" vertex="1">
          <mxGeometry x="300" y="25" width="190" height="180" as="geometry" />
        </mxCell>
        <mxCell id="evZGNCcMXbskKyCQwMWP-6" style="edgeStyle=orthogonalEdgeStyle;rounded=0;orthogonalLoop=1;jettySize=auto;html=1;entryX=0;entryY=0.5;entryDx=0;entryDy=0;" parent="1" source="evZGNCcMXbskKyCQwMWP-4" target="evZGNCcMXbskKyCQwMWP-5" edge="1">
          <mxGeometry relative="1" as="geometry" />
        </mxCell>
        <mxCell id="evZGNCcMXbskKyCQwMWP-4" value="数据提供方" style="shape=cylinder;whiteSpace=wrap;html=1;boundedLbl=1;backgroundOutline=1;" parent="1" vertex="1">
          <mxGeometry x="50" y="1320" width="60" height="80" as="geometry" />
        </mxCell>
        <mxCell id="evZGNCcMXbskKyCQwMWP-13" style="edgeStyle=orthogonalEdgeStyle;curved=1;rounded=0;orthogonalLoop=1;jettySize=auto;html=1;entryX=0;entryY=0.5;entryDx=0;entryDy=0;" parent="1" source="evZGNCcMXbskKyCQwMWP-5" target="evZGNCcMXbskKyCQwMWP-7" edge="1">
          <mxGeometry relative="1" as="geometry" />
        </mxCell>
        <mxCell id="evZGNCcMXbskKyCQwMWP-14" style="edgeStyle=orthogonalEdgeStyle;curved=1;rounded=0;orthogonalLoop=1;jettySize=auto;html=1;entryX=0;entryY=0.5;entryDx=0;entryDy=0;" parent="1" source="evZGNCcMXbskKyCQwMWP-5" target="evZGNCcMXbskKyCQwMWP-8" edge="1">
          <mxGeometry relative="1" as="geometry" />
        </mxCell>
        <mxCell id="evZGNCcMXbskKyCQwMWP-15" style="edgeStyle=orthogonalEdgeStyle;curved=1;rounded=0;orthogonalLoop=1;jettySize=auto;html=1;entryX=0;entryY=0.5;entryDx=0;entryDy=0;" parent="1" source="evZGNCcMXbskKyCQwMWP-5" target="evZGNCcMXbskKyCQwMWP-9" edge="1">
          <mxGeometry relative="1" as="geometry" />
        </mxCell>
        <mxCell id="evZGNCcMXbskKyCQwMWP-16" style="edgeStyle=orthogonalEdgeStyle;curved=1;rounded=0;orthogonalLoop=1;jettySize=auto;html=1;entryX=0;entryY=0.5;entryDx=0;entryDy=0;" parent="1" source="evZGNCcMXbskKyCQwMWP-5" target="evZGNCcMXbskKyCQwMWP-10" edge="1">
          <mxGeometry relative="1" as="geometry" />
        </mxCell>
        <mxCell id="evZGNCcMXbskKyCQwMWP-17" style="edgeStyle=orthogonalEdgeStyle;curved=1;rounded=0;orthogonalLoop=1;jettySize=auto;html=1;entryX=0;entryY=0.5;entryDx=0;entryDy=0;" parent="1" source="evZGNCcMXbskKyCQwMWP-5" target="evZGNCcMXbskKyCQwMWP-11" edge="1">
          <mxGeometry relative="1" as="geometry" />
        </mxCell>
        <mxCell id="evZGNCcMXbskKyCQwMWP-20" style="edgeStyle=orthogonalEdgeStyle;curved=1;rounded=0;orthogonalLoop=1;jettySize=auto;html=1;entryX=0;entryY=0.5;entryDx=0;entryDy=0;" parent="1" source="evZGNCcMXbskKyCQwMWP-5" target="evZGNCcMXbskKyCQwMWP-19" edge="1">
          <mxGeometry relative="1" as="geometry" />
        </mxCell>
        <mxCell id="evZGNCcMXbskKyCQwMWP-23" style="edgeStyle=orthogonalEdgeStyle;curved=1;rounded=0;orthogonalLoop=1;jettySize=auto;html=1;entryX=0;entryY=0.5;entryDx=0;entryDy=0;" parent="1" source="evZGNCcMXbskKyCQwMWP-5" target="evZGNCcMXbskKyCQwMWP-22" edge="1">
          <mxGeometry relative="1" as="geometry" />
        </mxCell>
        <mxCell id="evZGNCcMXbskKyCQwMWP-5" value="数据中心" style="shape=cylinder;whiteSpace=wrap;html=1;boundedLbl=1;backgroundOutline=1;" parent="1" vertex="1">
          <mxGeometry x="180" y="1320" width="160" height="80" as="geometry" />
        </mxCell>
        <mxCell id="evZGNCcMXbskKyCQwMWP-24" value="" style="group" parent="1" vertex="1" connectable="0">
          <mxGeometry x="900" y="1070" width="121" height="600" as="geometry" />
        </mxCell>
        <mxCell id="evZGNCcMXbskKyCQwMWP-21" value="" style="group" parent="evZGNCcMXbskKyCQwMWP-24" vertex="1" connectable="0">
          <mxGeometry width="121" height="510" as="geometry" />
        </mxCell>
        <mxCell id="evZGNCcMXbskKyCQwMWP-18" value="" style="group" parent="evZGNCcMXbskKyCQwMWP-21" vertex="1" connectable="0">
          <mxGeometry width="121" height="420" as="geometry" />
        </mxCell>
        <mxCell id="evZGNCcMXbskKyCQwMWP-7" value="人事系统" style="rounded=1;whiteSpace=wrap;html=1;" parent="evZGNCcMXbskKyCQwMWP-18" vertex="1">
          <mxGeometry x="1" width="120" height="60" as="geometry" />
        </mxCell>
        <mxCell id="evZGNCcMXbskKyCQwMWP-8" value="门户系统" style="rounded=1;whiteSpace=wrap;html=1;" parent="evZGNCcMXbskKyCQwMWP-18" vertex="1">
          <mxGeometry x="1" y="90" width="120" height="60" as="geometry" />
        </mxCell>
        <mxCell id="evZGNCcMXbskKyCQwMWP-9" value="统一身份认证系统" style="rounded=1;whiteSpace=wrap;html=1;" parent="evZGNCcMXbskKyCQwMWP-18" vertex="1">
          <mxGeometry y="180" width="120" height="60" as="geometry" />
        </mxCell>
        <mxCell id="evZGNCcMXbskKyCQwMWP-10" value="OA系统" style="rounded=1;whiteSpace=wrap;html=1;" parent="evZGNCcMXbskKyCQwMWP-18" vertex="1">
          <mxGeometry y="270" width="120" height="60" as="geometry" />
        </mxCell>
        <mxCell id="evZGNCcMXbskKyCQwMWP-11" value="科研系统" style="rounded=1;whiteSpace=wrap;html=1;" parent="evZGNCcMXbskKyCQwMWP-18" vertex="1">
          <mxGeometry y="360" width="120" height="60" as="geometry" />
        </mxCell>
        <mxCell id="evZGNCcMXbskKyCQwMWP-19" value="离退休系统" style="rounded=1;whiteSpace=wrap;html=1;" parent="evZGNCcMXbskKyCQwMWP-21" vertex="1">
          <mxGeometry x="1" y="450" width="120" height="60" as="geometry" />
        </mxCell>
        <mxCell id="evZGNCcMXbskKyCQwMWP-22" value="自主学习平台" style="rounded=1;whiteSpace=wrap;html=1;" parent="evZGNCcMXbskKyCQwMWP-24" vertex="1">
          <mxGeometry x="1" y="540" width="120" height="60" as="geometry" />
        </mxCell>
        <mxCell id="qU7bG7SQkYeNefK3TPIP-2" value="各个系统待数据中心确认数据一致且有效后进行同步测试" style="text;html=1;align=center;verticalAlign=middle;resizable=0;points=[];autosize=1;" vertex="1" parent="1">
          <mxGeometry x="230" y="1280" width="320" height="20" as="geometry" />
        </mxCell>
      </root>
    </mxGraphModel>
  </diagram>
</mxfile>
